<?xml version="1.0" encoding="UTF-8"?>
<svg id="uuid-7106bcdd-ab35-40ef-9e24-6f713b0609c8" data-name="About-Us-About-Our-Team--Streamline-Bangalore" xmlns="http://www.w3.org/2000/svg" xmlns:xlink="http://www.w3.org/1999/xlink" viewBox="0 0 335.74 291.6">
  <defs>
    <style>
      .uuid-2a3ed9a0-a6e4-486b-81ac-b02377ade17c {
        fill: #081128;
      }

      .uuid-2a3ed9a0-a6e4-486b-81ac-b02377ade17c, .uuid-2c9e79cd-ee06-4748-96b7-34c7cf2b294b, .uuid-ac2b35a4-2571-40c9-9a39-3d6a3ec23e68, .uuid-f7b112ff-ee1b-4247-998d-4e2c09e4f39c, .uuid-88a49fa0-d061-44b3-b065-719beebcea6a, .uuid-1188e49b-a910-468c-8e76-e6eca0722db1, .uuid-9e419608-1b7b-43c4-a1cc-a46f45990769 {
        stroke: #081128;
      }

      .uuid-2a3ed9a0-a6e4-486b-81ac-b02377ade17c, .uuid-2c9e79cd-ee06-4748-96b7-34c7cf2b294b, .uuid-ac2b35a4-2571-40c9-9a39-3d6a3ec23e68, .uuid-f7b112ff-ee1b-4247-998d-4e2c09e4f39c, .uuid-1188e49b-a910-468c-8e76-e6eca0722db1, .uuid-9e419608-1b7b-43c4-a1cc-a46f45990769 {
        stroke-width: .5px;
      }

      .uuid-2a3ed9a0-a6e4-486b-81ac-b02377ade17c, .uuid-2c9e79cd-ee06-4748-96b7-34c7cf2b294b, .uuid-ac2b35a4-2571-40c9-9a39-3d6a3ec23e68, .uuid-88a49fa0-d061-44b3-b065-719beebcea6a, .uuid-1188e49b-a910-468c-8e76-e6eca0722db1, .uuid-9e419608-1b7b-43c4-a1cc-a46f45990769 {
        stroke-linecap: round;
        stroke-linejoin: round;
      }

      .uuid-2c9e79cd-ee06-4748-96b7-34c7cf2b294b {
        fill: url(#uuid-a889332d-52d3-4edb-83b4-ecd1d30bb314);
      }

      .uuid-ac25ee4c-5fd1-4ccd-98df-9e909563fdf0 {
        fill: url(#uuid-20f918d1-3c54-4c67-add8-7618d5206eae);
      }

      .uuid-ac2b35a4-2571-40c9-9a39-3d6a3ec23e68, .uuid-f7b112ff-ee1b-4247-998d-4e2c09e4f39c {
        fill: #fff;
      }

      .uuid-121bb0f2-e5c7-4e38-8249-01097320f007 {
        fill: url(#uuid-575d3df2-ff06-4798-b0de-ce1f16232738);
      }

      .uuid-e5fa239c-ce5d-4f41-9a0d-ef54eba73e57 {
        fill: url(#uuid-01cce50a-9774-41eb-bb91-41ddb7a76500);
      }

      .uuid-f7b112ff-ee1b-4247-998d-4e2c09e4f39c {
        stroke-miterlimit: 10;
      }

      .uuid-88a49fa0-d061-44b3-b065-719beebcea6a {
        stroke-width: .5px;
      }

      .uuid-88a49fa0-d061-44b3-b065-719beebcea6a, .uuid-1188e49b-a910-468c-8e76-e6eca0722db1 {
        fill: none;
      }

      .uuid-e4d48ce5-cfe2-420a-9fba-f9d20e8ecb1a {
        fill: url(#uuid-e220b77c-ea34-4111-9fa4-f39c266a477a);
      }

      .uuid-9e419608-1b7b-43c4-a1cc-a46f45990769 {
        fill: url(#uuid-4ad3fc2c-c1e2-4f9a-9059-1e087fd6642f);
      }
    </style>
    <linearGradient id="uuid-01cce50a-9774-41eb-bb91-41ddb7a76500" data-name="Gradiente sem nome 36" x1="154.56" y1="469.94" x2="205.65" y2="460.59" gradientTransform="translate(219.77 -262.09) rotate(13.74)" gradientUnits="userSpaceOnUse">
      <stop offset="0" stop-color="#fff"/>
      <stop offset="1" stop-color="#aaebf2"/>
    </linearGradient>
    <linearGradient id="uuid-e220b77c-ea34-4111-9fa4-f39c266a477a" data-name="Gradiente sem nome 36" x1="169.98" y1="212.58" x2="222.17" y2="147.02" gradientTransform="translate(189.08 -147.05) rotate(23.81)" xlink:href="#uuid-01cce50a-9774-41eb-bb91-41ddb7a76500"/>
    <linearGradient id="uuid-575d3df2-ff06-4798-b0de-ce1f16232738" data-name="Gradiente sem nome 36" x1="108.98" y1="91.62" x2="161.98" y2="29.29" gradientTransform="translate(-15.5 -50.47) rotate(11.57)" xlink:href="#uuid-01cce50a-9774-41eb-bb91-41ddb7a76500"/>
    <linearGradient id="uuid-20f918d1-3c54-4c67-add8-7618d5206eae" data-name="Gradiente sem nome 36" x1="3.83" y1="170.94" x2="54.79" y2="129.43" gradientTransform="matrix(1,0,0,1,0,0)" xlink:href="#uuid-01cce50a-9774-41eb-bb91-41ddb7a76500"/>
    <linearGradient id="uuid-4ad3fc2c-c1e2-4f9a-9059-1e087fd6642f" data-name="Gradiente sem nome 36" x1="63" y1="221.71" x2="178.51" y2="221.71" gradientTransform="translate(-25.15 16.14) rotate(-7.69)" xlink:href="#uuid-01cce50a-9774-41eb-bb91-41ddb7a76500"/>
    <linearGradient id="uuid-a889332d-52d3-4edb-83b4-ecd1d30bb314" data-name="Gradiente sem nome 36" x1="143.77" y1="184.22" x2="252.21" y2="184.22" gradientTransform="translate(-18.97 17.98) rotate(-5.91)" xlink:href="#uuid-01cce50a-9774-41eb-bb91-41ddb7a76500"/>
  </defs>
  <g>
    <path class="uuid-1188e49b-a910-468c-8e76-e6eca0722db1" d="M123.82,111.93c7.07,7.05,16.45,10.93,26.43,10.93h33.46c9.98,0,19.36-3.88,26.43-10.92l61.85-61.65c.2-.2.2-.52,0-.72-.42-.44-.86-.84-1.29-1.27-.04-.1-.09-.19-.17-.26-5.08-5.15-10.55-9.92-16.35-14.27-.19-.14-.39-.28-.58-.42-1.43-1.06-2.87-2.13-4.34-3.14-.05-.03-.1-.02-.15-.04-.53-.36-1.03-.75-1.56-1.11-.2-.14-.48-.11-.65.06l-59.88,59.63c-.88.88-2.06,1.37-3.3,1.37h-.33V6.1c0-.26-.2-.49-.46-.51-.65-.07-1.3-.13-1.95-.19-.05-.01-.09-.04-.14-.04-.35-.03-.71-.04-1.06-.08-1.81-.16-3.62-.29-5.44-.39-.3-.02-.61-.03-.91-.04-2.13-.1-4.27-.16-6.42-.16s-4.29.06-6.42.16c-.3.01-.6.02-.91.04-1.83.09-3.64.23-5.45.39-.35.03-.7.04-1.04.07-.05,0-.09.03-.14.04-.65.06-1.31.12-1.95.19-.26.03-.46.25-.46.51v84.01s-.37,0-.37,0c-1.24,0-2.43-.49-3.31-1.37l-59.81-59.65c-.17-.17-.45-.2-.65-.06-.54.36-1.06.76-1.6,1.13-.05.02-.11,0-.15.04-1.45.99-2.86,2.04-4.26,3.08-.22.16-.44.31-.65.47-4.23,3.17-8.27,6.57-12.12,10.18-.01.01-.02.02-.04.03-1.42,1.33-2.83,2.67-4.2,4.06-.07.08-.13.17-.17.26-.42.43-.87.84-1.29,1.28-.19.2-.19.53,0,.72l61.81,61.64Z"/>
    <path class="uuid-1188e49b-a910-468c-8e76-e6eca0722db1" d="M134.59,149.29c-4.97-8.53-12.95-14.66-22.48-17.25l-84.09-22.96c-.27-.07-.55.08-.63.35-.18.61-.34,1.23-.51,1.84-.04.06-.08.12-.1.2-.15.55-.27,1.12-.42,1.68-.1.38-.19.77-.29,1.16-.5,1.96-.96,3.93-1.37,5.92-.16.74-.3,1.48-.44,2.23-.3,1.56-.58,3.13-.83,4.72-.15.93-.29,1.87-.42,2.81-.13.95-.27,1.9-.38,2.86-.18,1.54-.33,3.09-.47,4.65-.04.46-.1.9-.14,1.36,0,.07,0,.13.02.19-.05.63-.11,1.27-.15,1.9-.02.24.14.47.38.53l81.21,22.18c1.19.33,2.19,1.09,2.81,2.16l.2.34-72.42,41.81c-.23.13-.32.42-.22.66.24.55.51,1.07.76,1.61,0,.11.02.22.07.33,1.6,3.49,3.34,6.91,5.2,10.25l1.19,2.06s0,.02.01.03l1.08,1.87c2,3.33,4.12,6.57,6.37,9.72.05.08.12.14.2.19.36.5.68,1.02,1.05,1.51.16.21.45.27.67.14l72.54-41.87v.02c.64,1.08.81,2.34.5,3.54l-21.38,81.78c-.06.24.05.49.27.59.54.27,1.09.52,1.64.79.07.07.15.13.24.18,8.29,3.97,17.02,7.18,26.09,9.53.1.03.19.02.29.02.59.15,1.18.31,1.78.46.27.07.55-.1.62-.37l22.15-84.69c2.52-9.65,1.14-19.71-3.88-28.33l-16.71-28.66Z"/>
    <path class="uuid-1188e49b-a910-468c-8e76-e6eca0722db1" d="M311.96,138.82c-.04-.48-.1-.95-.14-1.43-.12-1.4-.26-2.8-.42-4.2-.13-1.12-.28-2.24-.43-3.35-.12-.85-.25-1.69-.38-2.53-.27-1.71-.57-3.4-.9-5.09-.12-.64-.25-1.28-.38-1.92-.47-2.27-1-4.52-1.57-6.75-.03-.12-.06-.24-.09-.36-.15-.58-.28-1.17-.44-1.75-.02-.08-.06-.14-.1-.2-.17-.6-.33-1.21-.5-1.82-.08-.27-.36-.43-.63-.35l-84.13,22.95c-9.52,2.6-17.51,8.73-22.48,17.25l-16.71,28.65c-4.99,8.56-6.39,18.76-3.87,28.35l22.19,84.67c.07.27.35.44.62.37.6-.14,1.18-.31,1.78-.46.1,0,.19,0,.29-.02,9.07-2.36,17.79-5.56,26.08-9.54.09-.04.18-.11.24-.18.54-.26,1.09-.52,1.63-.78.22-.11.33-.36.27-.59l-21.43-81.78c-.32-1.21-.14-2.47.48-3.55l.03-.04,72.56,41.89c.23.13.52.07.68-.14.36-.49.69-1,1.04-1.5.08-.05.15-.12.21-.2,1.05-1.47,2.05-2.98,3.05-4.49.09-.14.19-.28.28-.42,3.95-6.05,7.49-12.39,10.52-19.02.05-.11.07-.22.07-.33.24-.54.52-1.06.76-1.61.11-.24.01-.52-.22-.66l-72.45-41.82.18-.32c.62-1.06,1.62-1.83,2.81-2.16l81.25-22.18c.24-.07.4-.29.38-.53-.04-.64-.1-1.27-.15-1.9.01-.07.03-.13.02-.2Z"/>
  </g>
  <g>
    <path class="uuid-e5fa239c-ce5d-4f41-9a0d-ef54eba73e57" d="M293.27,230.47l-16.03-26.12s-.05-.04-.08-.02c-3.44,2.07-6.43,4.79-8.8,8.01-2.39,3.23-4.11,6.9-5.06,10.8-.95,3.9-1.12,7.95-.5,11.91.63,3.97,2.03,7.78,4.14,11.22,2.11,3.44,4.88,6.43,8.15,8.81,3.27,2.38,6.98,4.1,10.92,5.06s8.02,1.15,12.02.55c4-.6,7.84-1.98,11.3-4.05l-16.06-26.17Z"/>
    <line class="uuid-1188e49b-a910-468c-8e76-e6eca0722db1" x1="293.27" y1="230.47" x2="306.09" y2="222.78"/>
    <path class="uuid-1188e49b-a910-468c-8e76-e6eca0722db1" d="M263.24,238.32l-17.23,20.15c-1.52,1.77-.61,4.52,1.67,5.08l23.32,5.7c2.23.55,4.28-1.37,3.85-3.61l-2.29-12.14"/>
  </g>
  <g>
    <path class="uuid-e4d48ce5-cfe2-420a-9fba-f9d20e8ecb1a" d="M288.54,71.4c.42-.96,1.54-1.39,2.5-.97l31.86,14.06c.96.42,1.39,1.54.97,2.5l-11.32,25.65c-4.3,9.76-15.7,14.17-25.46,9.87h0c-9.76-4.3-14.18-15.7-9.87-25.46l11.32-25.65Z"/>
    <g>
      <g>
        <path class="uuid-1188e49b-a910-468c-8e76-e6eca0722db1" d="M287.1,122.51l-6.29,14.26"/>
        <path class="uuid-1188e49b-a910-468c-8e76-e6eca0722db1" d="M266.67,130.54l28.26,12.47"/>
      </g>
      <path class="uuid-1188e49b-a910-468c-8e76-e6eca0722db1" d="M312.55,112.64h0c7.8,3.44,16.92-.09,20.37-7.9l2.42-5.5c.38-.87-.01-1.88-.88-2.26l-12.56-5.54"/>
      <path class="uuid-1188e49b-a910-468c-8e76-e6eca0722db1" d="M277.22,97.05h0c-7.8-3.44-11.34-12.56-7.9-20.37l2.42-5.5c.38-.87,1.4-1.26,2.26-.88l12.56,5.54"/>
    </g>
  </g>
  <g>
    <path class="uuid-121bb0f2-e5c7-4e38-8249-01097320f007" d="M123.63,10.66l8.21,1.68c1.65.34,2.71,1.95,2.37,3.6l-9.78,47.76c-.34,1.65-1.95,2.71-3.6,2.37l-40.3-8.25c-1.65-.34-2.71-1.95-2.37-3.6l9.78-47.76c.34-1.65,1.95-2.71,3.6-2.37l8.21,1.68,23.88,4.89Z"/>
    <g>
      <path class="uuid-1188e49b-a910-468c-8e76-e6eca0722db1" d="M100.48,2.22c.27-1.33,1.58-2.19,2.91-1.91l19.05,3.94c1.33.27,2.18,1.57,1.91,2.9l-1.46,7.12c-.27,1.33-1.57,2.19-2.91,1.91l-19.05-3.94c-1.33-.27-2.18-1.57-1.91-2.9l1.46-7.12Z"/>
      <path class="uuid-1188e49b-a910-468c-8e76-e6eca0722db1" d="M96.54,21.44l8.96,1.83"/>
      <path class="uuid-1188e49b-a910-468c-8e76-e6eca0722db1" d="M94.25,32.64l23.88,4.89"/>
      <path class="uuid-1188e49b-a910-468c-8e76-e6eca0722db1" d="M91.96,43.83l23.88,4.89"/>
    </g>
  </g>
  <g>
    <circle class="uuid-ac25ee4c-5fd1-4ccd-98df-9e909563fdf0" cx="30.93" cy="148.86" r="30.93"/>
    <g>
      <polygon class="uuid-1188e49b-a910-468c-8e76-e6eca0722db1" points="34.57 153.16 25.07 143.65 14.13 164.09 34.57 153.16"/>
      <polygon class="uuid-2a3ed9a0-a6e4-486b-81ac-b02377ade17c" points="25.07 143.65 34.57 153.16 45.51 132.71 25.07 143.65"/>
    </g>
  </g>
  <g>
    <g>
      <g>
        <path class="uuid-ac2b35a4-2571-40c9-9a39-3d6a3ec23e68" d="M142.32,96.65c1.55-1.23,8.47-7.41,2.39-20.64-4.06-8.83.65-17.61,6.34-18.69,12.22-2.33,19.54,28.81,5.87,26.96,0,0-1.4,6.46,2.36,8.72,0,0,.61,7.6-7.73,8.73-8.34,1.14-9.24-5.08-9.24-5.08Z"/>
        <path class="uuid-2a3ed9a0-a6e4-486b-81ac-b02377ade17c" d="M156.92,84.28c-2.21-.32-4.55-1.43-4.55-1.43,0,0,2.06,3.49,4.3,4.22,0,0-.05-1.27.25-2.79Z"/>
      </g>
      <path class="uuid-2a3ed9a0-a6e4-486b-81ac-b02377ade17c" d="M146.56,90.25s-.62-11.93-10.94-29.2c-2.63-4.4,2.4-7.15,4.48-3.97-1.14-3.99,3.55-6.05,5.45-2.53-.23-4.04,4.56-4.47,5.67-1.68.04-1.53,1.41-2.76,2.72-2.96,4.59-.69,7.59,11,7.89,15.36,0,0-6.69-13.23-11.9,3.29,0,0-.5,1.54-2.19-.46s-3.71-1.09-4.21.51.58,4.22,3.04,6.05c0,0,2.71,9.85-.02,15.59Z"/>
    </g>
    <g>
      <g>
        <path class="uuid-2a3ed9a0-a6e4-486b-81ac-b02377ade17c" d="M74.66,221.74c-2.99-.49-7.4-1.29-11.26-1.91-12.55,6.81-31.04,22.88-39.21,30.26,7.35-.19,19.72-2.95,23.4-3.79,5.33-1.21,15.8-4.32,24.46-3.77,8.66.55,12.53-1.95,13.19-7.28.87-7.11-4.57-12.52-10.58-13.51Z"/>
        <path class="uuid-f7b112ff-ee1b-4247-998d-4e2c09e4f39c" d="M55.49,218.91c-1.39.36-36.98,26.1-36.91,29.48.03,1.35,2.32,1.78,5.62,1.7,8.17-7.39,26.66-23.45,39.21-30.26-3.89-.63-7.22-1.1-7.92-.91Z"/>
      </g>
      <g>
        <path class="uuid-9e419608-1b7b-43c4-a1cc-a46f45990769" d="M144.19,180.72c-2.69,9.04-9.36,31.78-14.72,38.95,0,0-38.56-1-55.51-3.39,0,0-9.49,13.34-3.64,31.56,0,0,57.57,13.95,75.8,3.38,11.56-6.7,25.65-36.75,33.2-54.61-7.62-1.33-20.48-3.93-27.38-7.3-4.1-2-6.43-5.33-7.76-8.6Z"/>
        <path class="uuid-2a3ed9a0-a6e4-486b-81ac-b02377ade17c" d="M145.32,177.08c-.16.39-.55,1.71-1.13,3.64,1.33,3.27,3.67,6.6,7.76,8.6,6.89,3.37,19.76,5.96,27.38,7.3,3.02-7.15,5-12.35,5.34-13.31,10.86-30.22-28.95-32.19-39.36-6.23Z"/>
      </g>
    </g>
    <g>
      <path class="uuid-2a3ed9a0-a6e4-486b-81ac-b02377ade17c" d="M109.31,156.63c-7.35,0-11.5,4.37-11.47,7.29.03,2.92,25.03,2.85,24.86-1.53-.17-4.37-6.53-5.77-13.39-5.77Z"/>
      <g>
        <g>
          <path class="uuid-ac2b35a4-2571-40c9-9a39-3d6a3ec23e68" d="M110.67,172.04c-2.47-.49-5.23,1.22-5.35,7.06,0,0-2.87,2.94-9.34,4.58s-1.14,4.23,6.58,1.25c-2.68,2-8.57,4.82-7.23,6.4.78.91,8.47-1.92,10.86-4.45-3.08,4.84-8.49,9.68-5.42,10.24,2.37.43,7.51-5.58,11.05-10.43,1.82-2.49,7-13.02-1.16-14.64Z"/>
          <path class="uuid-88a49fa0-d061-44b3-b065-719beebcea6a" d="M106.54,181.6s-1.71,1.62-3.98,3.32"/>
          <path class="uuid-88a49fa0-d061-44b3-b065-719beebcea6a" d="M108.44,183.06c-1.3,2.37-2.25,3.8-2.25,3.8"/>
        </g>
        <path class="uuid-ac2b35a4-2571-40c9-9a39-3d6a3ec23e68" d="M109.54,146.46c-4.38-.07-6.56,2.97-5.98,7.93.58,4.96,1.78,10.35.25,11.94s-4.31,3.71-5.13,7.03-3.5,10.45.33,7.39,5.44-9.31,9.11-7.54c3.67,1.77,6.17,4.79.22,22.31-3.33,9.8,6.18-1.39,9.34-10.14,2.03-5.61,2.94-7.3.51-19.74-2.7-13.76-2.22-19.08-8.65-19.18Z"/>
      </g>
      <g>
        <rect class="uuid-2a3ed9a0-a6e4-486b-81ac-b02377ade17c" x="238.46" y="44.27" width="4.41" height="41.01" rx="2.21" ry="2.21" transform="translate(2.56 -8.87) rotate(2.12)"/>
        <path class="uuid-ac2b35a4-2571-40c9-9a39-3d6a3ec23e68" d="M224.29,104.72c-3.03-3.86-2.88-9.16,1.66-12.51,4.54-3.35,9.42-4.68,7.63-16.18s.09-11.33,1.23-10.79,3.73,11.07,5.86,11.03c1.99-.04,1.73-13.12,1.88-19.98.11-4.9,2.35-3.64,3.01-.69,1.4,6.29,4.41,20.41,3.52,25.31-3.62,19.9-19.81,30.16-24.78,23.82Z"/>
      </g>
      <g>
        <path class="uuid-ac2b35a4-2571-40c9-9a39-3d6a3ec23e68" d="M165.4,165.05c-19.15,4.87-22.25-11.38-22.25-11.38-2.59-17.7-7.63-27.9-7.63-27.9-8.25,3.6-15.41,8.32-15.41,8.32.19,5.36,2.6,28.31,2.6,28.31-.6-3.96-21.89-2.8-24.86,1.53,0,0-2.89-28.46-.88-36.43s24.27-22.14,32.97-25.97,27.55-11.1,37.71-9.67,17.51,14.7,18.94,16.84,6,8.69,6,8.69l39.15-29.69,7.11,27.23s-33.82,23.29-37.16,25.35c-3.14,1.93-10.84,6.74-20.52-1.89,0,0,2.25,22.08-15.77,26.67Z"/>
        <path class="uuid-2a3ed9a0-a6e4-486b-81ac-b02377ade17c" d="M164.66,121.13s13.37,14.45,16.52,17.25c0,0,.25,2.83-.14,6.42,0,0-9.1-12.54-16.38-23.67Z"/>
        <path class="uuid-2a3ed9a0-a6e4-486b-81ac-b02377ade17c" d="M195.2,120.88c-1.38-1.76-2.6-3.5-2.6-3.5l10.87-8.24-8.27,11.74Z"/>
        <path class="uuid-2a3ed9a0-a6e4-486b-81ac-b02377ade17c" d="M125.03,131.09s5.54-6.57,8.15-9.73c0,0,1.45,2.19,2.34,4.42,0,0-5.41,2.34-10.49,5.31Z"/>
      </g>
    </g>
    <g>
      <g>
        <path class="uuid-2a3ed9a0-a6e4-486b-81ac-b02377ade17c" d="M228.39,222.41c1.36-12.54-16.68-19.75-20.73-3.59-1.08,4.32-2.13,10.71-2.92,15.4,5.65,8.79,18.31,27.62,29.53,38.3-3.51-33.93-7.42-36.01-5.88-50.12Z"/>
        <path class="uuid-f7b112ff-ee1b-4247-998d-4e2c09e4f39c" d="M228.97,275.93c4.67,3.35,5.48.05,5.3-3.41-11.22-10.68-23.88-29.51-29.53-38.3-.59,3.54-1.2,8.02-1.2,8.02,0,0,15.66,26.68,25.43,33.69Z"/>
      </g>
      <g>
        <path class="uuid-2c9e79cd-ee06-4748-96b7-34c7cf2b294b" d="M143.1,153.28s-11.28,38.49,21.87,39.23c22.31.5,42.91-15.19,42.91-15.19l-5.75,43.63s11.33,9.34,30.61,4.13c0,0,11.8-57.35,14.63-72.79,2.38-12.95-3.54-32.94-36.41-18.18-20.03,8.99-49.45,21.42-67.85,19.16Z"/>
        <path class="uuid-2a3ed9a0-a6e4-486b-81ac-b02377ade17c" d="M219.58,168.73c-5.3,4.14-11.71,8.59-11.71,8.59l-1.78,13.52,13.5-22.11Z"/>
      </g>
    </g>
  </g>
</svg>