<?xml version="1.0" encoding="UTF-8"?>
<svg id="uuid-f6ed4f0a-b514-4e4b-a8ef-fb2aa9bccc3a" data-name="About-Us-About-Our-Team--Streamline-Bangalore" xmlns="http://www.w3.org/2000/svg" xmlns:xlink="http://www.w3.org/1999/xlink" viewBox="0 0 203.04 209.1">
  <defs>
    <style>
      .uuid-bcd86fde-955f-4aea-9b20-f2a60aa22a7b {
        fill: url(#uuid-2f71f094-afe1-4d88-b45e-0b537f52f8e0);
      }

      .uuid-f993f378-776f-432f-a57e-8bbc8a9bafb1 {
        fill: url(#uuid-08b93143-52a4-4ba8-99f9-79937874d647);
      }

      .uuid-90ea87eb-c49a-4b7b-b24f-9b632b2a1dcf {
        fill: url(#uuid-f757d87b-1af0-48b9-9bf3-39c6019a5d20);
      }

      .uuid-76ebade2-bb00-4c42-869d-cef2c9a929a1, .uuid-59cc422e-19d1-4708-b7a4-a071616f6a5a, .uuid-69dd0ab8-22e6-4ce6-b287-6898d4f58ea3, .uuid-3fc4de59-b0fc-4a25-b032-f28be12fc188, .uuid-77f894ae-2357-44c7-834f-65bd8b2bcaf6, .uuid-3346a8f9-79d1-41ab-bcaa-1484d850d025, .uuid-46a31fe2-bd26-4904-8318-13b7de6299ec, .uuid-64398672-b34f-4ecc-addd-38d6345fa634 {
        stroke: #081128;
        stroke-width: .5px;
      }

      .uuid-76ebade2-bb00-4c42-869d-cef2c9a929a1, .uuid-59cc422e-19d1-4708-b7a4-a071616f6a5a, .uuid-3fc4de59-b0fc-4a25-b032-f28be12fc188, .uuid-77f894ae-2357-44c7-834f-65bd8b2bcaf6, .uuid-3346a8f9-79d1-41ab-bcaa-1484d850d025, .uuid-46a31fe2-bd26-4904-8318-13b7de6299ec, .uuid-64398672-b34f-4ecc-addd-38d6345fa634 {
        stroke-miterlimit: 10;
      }

      .uuid-76ebade2-bb00-4c42-869d-cef2c9a929a1, .uuid-69dd0ab8-22e6-4ce6-b287-6898d4f58ea3, .uuid-4364229c-308e-46a3-9bbf-3dd61b922a68 {
        fill: #081128;
      }

      .uuid-d2fb7038-ec55-4cde-94f4-eeb15cd013d5 {
        fill: url(#uuid-28337d0a-0bd8-43dd-b991-b3ad4e777388);
      }

      .uuid-59cc422e-19d1-4708-b7a4-a071616f6a5a, .uuid-77f894ae-2357-44c7-834f-65bd8b2bcaf6 {
        fill: none;
      }

      .uuid-69dd0ab8-22e6-4ce6-b287-6898d4f58ea3 {
        stroke-linejoin: round;
      }

      .uuid-69dd0ab8-22e6-4ce6-b287-6898d4f58ea3, .uuid-77f894ae-2357-44c7-834f-65bd8b2bcaf6, .uuid-46a31fe2-bd26-4904-8318-13b7de6299ec {
        stroke-linecap: round;
      }

      .uuid-80e4d511-14c0-4a29-8074-960280697dbc {
        fill: url(#uuid-dcb9765e-9a9e-4939-89b9-a6d9dd0620d6);
      }

      .uuid-3573b14d-7db7-4abb-8ae9-30978f684bcc, .uuid-3fc4de59-b0fc-4a25-b032-f28be12fc188, .uuid-46a31fe2-bd26-4904-8318-13b7de6299ec {
        fill: #fff;
      }

      .uuid-7b103fb2-863b-420c-bf49-71bf7a6b8204 {
        fill: url(#uuid-dcd05b1c-d6df-4a69-8a7d-74fae7ba5b4e);
      }

      .uuid-b4f6e963-eae2-497a-bd78-0633974d7025 {
        fill: url(#uuid-11478705-f5f4-4c03-b647-548ed883f54a);
      }

      .uuid-21042961-0c7d-418b-ba30-46936b4b387f {
        fill: url(#uuid-47052f15-c7ab-4a63-ab15-2a8ed7047c32);
      }

      .uuid-3346a8f9-79d1-41ab-bcaa-1484d850d025 {
        fill: url(#uuid-2dfa7612-c62b-416d-a32b-d6c761a6ccd5);
      }

      .uuid-64398672-b34f-4ecc-addd-38d6345fa634 {
        fill: url(#uuid-f94e0cfb-1d04-4587-a267-67152c7531c9);
      }

      .uuid-71c09ae5-baa4-40cc-9786-030dbe7bce2e {
        fill: url(#uuid-c83b5cda-f727-4895-a374-509b8cfb77d0);
      }
    </style>
    <linearGradient id="uuid-11478705-f5f4-4c03-b647-548ed883f54a" data-name="Gradiente sem nome 36" x1="46.67" y1="111.95" x2="170.29" y2="-11.67" gradientTransform="translate(8.32 17.5) rotate(-7.56)" gradientUnits="userSpaceOnUse">
      <stop offset="0" stop-color="#fff"/>
      <stop offset="1" stop-color="#aaebf2"/>
    </linearGradient>
    <linearGradient id="uuid-c83b5cda-f727-4895-a374-509b8cfb77d0" data-name="Gradiente sem nome 36" x1="80.45" y1="145.73" x2="204.07" y2="22.11" xlink:href="#uuid-11478705-f5f4-4c03-b647-548ed883f54a"/>
    <linearGradient id="uuid-08b93143-52a4-4ba8-99f9-79937874d647" data-name="Gradiente sem nome 36" x1="73.7" y1="138.97" x2="197.32" y2="15.36" xlink:href="#uuid-11478705-f5f4-4c03-b647-548ed883f54a"/>
    <linearGradient id="uuid-47052f15-c7ab-4a63-ab15-2a8ed7047c32" data-name="Gradiente sem nome 36" x1="33.16" y1="98.43" x2="156.77" y2="-25.19" xlink:href="#uuid-11478705-f5f4-4c03-b647-548ed883f54a"/>
    <linearGradient id="uuid-f757d87b-1af0-48b9-9bf3-39c6019a5d20" data-name="Gradiente sem nome 36" x1="26.4" y1="91.68" x2="150.02" y2="-31.94" xlink:href="#uuid-11478705-f5f4-4c03-b647-548ed883f54a"/>
    <linearGradient id="uuid-dcd05b1c-d6df-4a69-8a7d-74fae7ba5b4e" data-name="Gradiente sem nome 36" x1="60.18" y1="125.46" x2="183.8" y2="1.84" xlink:href="#uuid-11478705-f5f4-4c03-b647-548ed883f54a"/>
    <linearGradient id="uuid-2f71f094-afe1-4d88-b45e-0b537f52f8e0" data-name="Gradiente sem nome 36" x1="11.26" y1="209.96" x2="55.94" y2="166.3" gradientTransform="matrix(1,0,0,1,0,0)" xlink:href="#uuid-11478705-f5f4-4c03-b647-548ed883f54a"/>
    <linearGradient id="uuid-dcb9765e-9a9e-4939-89b9-a6d9dd0620d6" data-name="Gradiente sem nome 36" x1="8.88" y1="207.53" x2="53.57" y2="163.87" gradientTransform="matrix(1,0,0,1,0,0)" xlink:href="#uuid-11478705-f5f4-4c03-b647-548ed883f54a"/>
    <linearGradient id="uuid-28337d0a-0bd8-43dd-b991-b3ad4e777388" data-name="Gradiente sem nome 36" x1="-1.88" y1="196.51" x2="42.8" y2="152.85" gradientTransform="matrix(1,0,0,1,0,0)" xlink:href="#uuid-11478705-f5f4-4c03-b647-548ed883f54a"/>
    <linearGradient id="uuid-f94e0cfb-1d04-4587-a267-67152c7531c9" data-name="Gradiente sem nome 36" x1="78.92" y1="114.06" x2="169.16" y2="114.06" gradientTransform="translate(-.93 -6.26) rotate(2.73)" xlink:href="#uuid-11478705-f5f4-4c03-b647-548ed883f54a"/>
    <linearGradient id="uuid-2dfa7612-c62b-416d-a32b-d6c761a6ccd5" data-name="Gradiente sem nome 36" x1="57.08" y1="139.16" x2="142.76" y2="139.16" gradientTransform="translate(-.93 -6.26) rotate(2.73)" xlink:href="#uuid-11478705-f5f4-4c03-b647-548ed883f54a"/>
  </defs>
  <g>
    <rect class="uuid-59cc422e-19d1-4708-b7a4-a071616f6a5a" x="8.07" y="50.75" width="151.34" height="132.49" rx="8.34" ry="8.34" transform="translate(-16.37 13.66) rotate(-8.5)"/>
    <line class="uuid-3fc4de59-b0fc-4a25-b032-f28be12fc188" x1="151.97" y1="61.58" x2="2.29" y2="83.94"/>
    <g>
      <circle class="uuid-b4f6e963-eae2-497a-bd78-0633974d7025" cx="103.06" cy="78.25" r="13.51"/>
      <circle class="uuid-71c09ae5-baa4-40cc-9786-030dbe7bce2e" cx="170.04" cy="69.35" r="13.51"/>
      <circle class="uuid-f993f378-776f-432f-a57e-8bbc8a9bafb1" cx="139.22" cy="93.89" r="13.51"/>
      <circle class="uuid-21042961-0c7d-418b-ba30-46936b4b387f" cx="128.55" cy="13.52" r="13.51"/>
      <circle class="uuid-90ea87eb-c49a-4b7b-b24f-9b632b2a1dcf" cx="97.72" cy="38.06" r="13.51"/>
      <circle class="uuid-7b103fb2-863b-420c-bf49-71bf7a6b8204" cx="164.7" cy="29.16" r="13.51"/>
    </g>
    <circle class="uuid-3fc4de59-b0fc-4a25-b032-f28be12fc188" cx="112.29" cy="57.17" r="4.06"/>
    <circle class="uuid-3fc4de59-b0fc-4a25-b032-f28be12fc188" cx="122.99" cy="55.39" r="4.06"/>
    <circle class="uuid-76ebade2-bb00-4c42-869d-cef2c9a929a1" cx="133.88" cy="53.7" r="4.06"/>
  </g>
  <g>
    <g>
      <path class="uuid-77f894ae-2357-44c7-834f-65bd8b2bcaf6" d="M63.78,159.35v-6.49c0-2.04-1.65-3.69-3.69-3.69h-6.49"/>
      <path class="uuid-77f894ae-2357-44c7-834f-65bd8b2bcaf6" d="M18.14,149.17h-6.49c-2.04,0-3.69,1.65-3.69,3.69v6.49"/>
      <path class="uuid-77f894ae-2357-44c7-834f-65bd8b2bcaf6" d="M53.6,204.99h6.49c2.04,0,3.69-1.65,3.69-3.69v-6.49"/>
      <path class="uuid-77f894ae-2357-44c7-834f-65bd8b2bcaf6" d="M7.96,194.81v6.49c0,2.04,1.65,3.69,3.69,3.69h6.49"/>
    </g>
    <g>
      <path class="uuid-bcd86fde-955f-4aea-9b20-f2a60aa22a7b" d="M36.36,177.33l2.19,5.91,5.91,2.19c.44.16.44.79,0,.95l-5.91,2.19-2.19,5.91c-.16.44-.79.44-.95,0l-2.19-5.91-5.91-2.19c-.44-.16-.44-.79,0-.95l5.91-2.19,2.19-5.91c.16-.44.79-.44.95,0Z"/>
      <path class="uuid-80e4d511-14c0-4a29-8074-960280697dbc" d="M49.68,163.96l1,2.7,2.7,1c.44.16.44.79,0,.95l-2.7,1-1,2.7c-.16.44-.79.44-.95,0l-1-2.7-2.7-1c-.44-.16-.44-.79,0-.95l2.7-1,1-2.7c.16-.44.79-.44.95,0Z"/>
      <path class="uuid-d2fb7038-ec55-4cde-94f4-eeb15cd013d5" d="M23.02,168.47l1,2.7,2.7,1c.44.16.44.79,0,.95l-2.7,1-1,2.7c-.16.44-.79.44-.95,0l-1-2.7-2.7-1c-.44-.16-.44-.79,0-.95l2.7-1,1-2.7c.16-.44.79-.44.95,0Z"/>
    </g>
  </g>
  <g>
    <g>
      <path class="uuid-3fc4de59-b0fc-4a25-b032-f28be12fc188" d="M180.33,111.71c4.12-2.94,22.35-14.73,22.46-17,.04-.75-.61-1.12-1.7-1.29-5.2,4.36-18.36,14.08-26.54,19.6,1.7.3,3.43.38,5.78-1.3Z"/>
      <path class="uuid-3fc4de59-b0fc-4a25-b032-f28be12fc188" d="M162.2,94.99c-4.67,0-7.49,3.62-7.85,6.56-.98,7.95,3.83,9.79,6.35,9.82,1.82.02,3.45.12,4.93.26,2.9-3.1,5.41-4.29,10.36-17.11-4.45.27-9.2.48-13.8.48Z"/>
      <path class="uuid-76ebade2-bb00-4c42-869d-cef2c9a929a1" d="M194.24,93.32c-3.09,0-10.15.71-18.24,1.2-4.95,12.82-7.47,14.01-10.36,17.11,3.82.34,6.51.93,7.97,1.21.32.06.63.12.94.18,8.19-5.51,21.35-15.24,26.54-19.6-1.56-.25-4.04-.1-6.85-.1Z"/>
    </g>
    <path class="uuid-64398672-b34f-4ecc-addd-38d6345fa634" d="M82.43,111.63s36.13-19.43,38.78-19.96c1.9-.38,4.81-.48,10.32-.1,13.17.89,24.6,1,30.17.89,0,0,4.21,5.84-.88,20.31,0,0-34.64,1.65-36.7,2.06s-34.9,18.86-36.81,19.67-11.5,2.9-15.1-8.45c-2.5-7.87,10.23-14.4,10.23-14.4Z"/>
    <path class="uuid-59cc422e-19d1-4708-b7a4-a071616f6a5a" d="M153.73,92.47c1.46,6.53.52,13.55-1.69,20.53"/>
  </g>
  <g>
    <g>
      <path class="uuid-3fc4de59-b0fc-4a25-b032-f28be12fc188" d="M114.61,180.98c-.13,2.54-.59,2.92,2.5,7.48,3.09,4.56,13.8,17.78,15.4,19.47,1.29,1.36,2.48,1.47,2.7-1.43-3.42-3.9-14.62-16.8-20.61-25.52h0Z"/>
      <path class="uuid-3fc4de59-b0fc-4a25-b032-f28be12fc188" d="M132.77,176.27c-.34-3.76-.4-7.77-.36-8.66s-1.58-5.58-8.04-5.71c-2.34-.05-8.47.36-8.73,5.89-.08,1.6-.18,3.11-.29,4.53,2.92,2.39,10.02,7.69,17.98,9.97-.25-2.75-.46-4.96-.56-6.02Z"/>
      <path class="uuid-76ebade2-bb00-4c42-869d-cef2c9a929a1" d="M135.21,203.92c-.25-3.94-1.22-14.57-1.88-21.63-7.96-2.27-15.06-7.58-17.98-9.97-.29,3.76-.64,6.82-.74,8.66,5.99,8.72,17.18,21.62,20.61,25.52.05-.69.05-1.54-.01-2.59Z"/>
    </g>
    <path class="uuid-3346a8f9-79d1-41ab-bcaa-1484d850d025" d="M125.08,110.62c-11.63-7.99-30.67,1.61-48.34,7.04-1.85.57-5,.02-8.51-.4-7.62,8.15-18.63,15.16-18.63,15.16h0c4.51,10.1,18.58,18.91,33.77,13.19,17.12-6.45,28.97-13.19,28.97-13.19,1.52,12.28,1.84,36.28,1.84,36.28,11.41,3.01,19.22-.25,19.22-.25,1.99-23.96,2.57-50.35-8.32-57.83Z"/>
    <polygon class="uuid-69dd0ab8-22e6-4ce6-b287-6898d4f58ea3" points="112.34 132.42 119.91 128.31 113.3 143.88 112.34 132.42"/>
  </g>
  <g>
    <g>
      <path class="uuid-46a31fe2-bd26-4904-8318-13b7de6299ec" d="M37.41,53.42c5.31-2.41,12.92-.96,15.09,4.3,1.49,3.61-1.56,19.22-9.05,15.11,0,0-.17,3.49-.31,6.48s-1.66,6.6-7.78,4.93-7.51-26.49,2.05-30.82Z"/>
      <path class="uuid-69dd0ab8-22e6-4ce6-b287-6898d4f58ea3" d="M39.89,70.15c1.07,1,1.92,1.61,3.56,2.68l-.27,5.58-3.29-8.26Z"/>
    </g>
    <g>
      <path class="uuid-3fc4de59-b0fc-4a25-b032-f28be12fc188" d="M47.23,82.35l-14.5-2.08s-5.22,8.04-5.66,14.41c-.43,6.37,6.53,15.82,6.53,15.82,0,0,2.16,13.22,16,21.93,0,0,13.98-8.89,21.33-18.3,0,0-25.31-24.64-23.71-31.79Z"/>
      <g>
        <path class="uuid-46a31fe2-bd26-4904-8318-13b7de6299ec" d="M49.95,98.58c3.66-3.02,9.13-2.76,12.15,1.22,3.42,4.51,6.01,6.72,8.65,7.53s23.04-6.55,24.59-11.99.06-13.04,1.96-14.01,2.32,7.88,4.18,9.08,3.74-17.42,4.84-17.26c1.66.25,2.33,16.55,1.11,21.47s-5.88,12.06-12.77,16.33c-6.89,4.27-24.46,15.52-31.8,11.55-7.34-3.97-11.66-10.13-13.29-11.9s-3.8-8.57.38-12.02Z"/>
        <path class="uuid-46a31fe2-bd26-4904-8318-13b7de6299ec" d="M101.47,90.41c.64.41,1.28-1.52,1.89-4.22l3.38-17.88c.15-.82-.38-1.6-1.2-1.76-.82-.15-1.6.39-1.75,1.2l-3.69,19.92c.38,1.29.81,2.36,1.37,2.73Z"/>
        <path class="uuid-3573b14d-7db7-4abb-8ae9-30978f684bcc" d="M33.56,79.16c3.83-4.12,11.18-5.67,21.08,6.87,7.85,9.94,10.81,13.17,10.81,13.17,0,0-1.33,7.8-15.84,14.58,0,0-24.74-25.27-16.05-34.61Z"/>
        <path class="uuid-77f894ae-2357-44c7-834f-65bd8b2bcaf6" d="M33.56,79.16c3.83-4.12,11.18-5.67,21.08,6.87,7.85,9.94,10.81,13.17,10.81,13.17,0,0-1.33,7.8-15.84,14.58,0,0-3.67-3.75-7.69-8.9"/>
      </g>
      <path class="uuid-69dd0ab8-22e6-4ce6-b287-6898d4f58ea3" d="M41.92,104.88s4.39,11.08,17.3,20.59c2.83-2.34,3.63-2.97,3.63-2.97,0,0-6.36-3.12-11.38-9.64,0,0-1.14.57-1.87.92-2.43-2.4-7.69-8.9-7.69-8.9Z"/>
    </g>
    <path class="uuid-76ebade2-bb00-4c42-869d-cef2c9a929a1" d="M40.74,60.06c-2.55,11.7-3.83,15.22-7.29,26.02-2.97,9.27-.48,22.17.15,24.42,0,0-20.52,2.25-22.15-15.57-1.21-13.2,15.32-21.48,15.32-21.48,0,0-5.49-20.74,7.45-25.59,9.37-3.51,12.76,3.04,12.76,3.04,0,0,7.3-.31,7.49,7.73,0,0-8.33,1.51-11.69-1.15-.21-1.05-1.77-2.09-3.04-1s-.38,3.25.99,3.57Z"/>
  </g>
  <g>
    <path class="uuid-4364229c-308e-46a3-9bbf-3dd61b922a68" d="M11.43,70.43c.23.17.5.24.78.19l.93-.14c.28-.04.52-.19.69-.41l1.47-1.98s0-.02,0-.02c-.01-.01-.03-.02-.04-.03,0,0,0,0,0,0-.16-.12-.34-.23-.51-.33,0,0-.01,0-.02,0-.04-.02-.09-.05-.13-.07,0,0,0,0,0,0-.02,0-.03-.02-.05-.02,0,0-.01,0-.02,0l-1.42,1.91s-.05.05-.09.05h0s-.35-2.34-.35-2.34c0,0,0-.01-.01-.01-.02,0-.04,0-.06,0,0,0,0,0,0,0,0,0-.02,0-.03,0-.05,0-.1,0-.15.01,0,0-.02,0-.03,0-.06,0-.12.01-.18.02s-.12.02-.18.03c0,0-.02,0-.03,0-.05.01-.1.02-.15.03,0,0-.02,0-.03,0,0,0,0,0,0,0-.02,0-.04,0-.05.01,0,0-.01,0-.01.02l.35,2.34h-.01s-.07,0-.1-.02l-1.91-1.41s-.01,0-.02,0c-.01.01-.03.03-.04.04,0,0,0,0,0,0-.04.03-.07.07-.11.1,0,0-.01.01-.02.02-.1.11-.2.22-.3.33,0,0,0,0,0,0-.03.04-.07.09-.1.13,0,0,0,0,0,0-.01.01-.02.03-.03.04,0,0,0,.02,0,.02l1.98,1.46Z"/>
    <path class="uuid-4364229c-308e-46a3-9bbf-3dd61b922a68" d="M11.88,71.43c-.17-.22-.42-.35-.7-.39l-2.44-.29s-.02,0-.02.01c0,.02,0,.04,0,.05,0,0,0,0,0,0,0,.02,0,.03,0,.05,0,.01,0,.02,0,.03,0,.06-.01.11-.01.17,0,.02,0,.04,0,.06,0,.04,0,.09,0,.13,0,.03,0,.05,0,.08,0,.03,0,.05,0,.08,0,.04,0,.09,0,.13,0,.01,0,.03,0,.04,0,0,0,0,0,0,0,.02,0,.04,0,.05,0,0,0,.01.01.01l2.35.28s.07.02.09.05h0s-1.84,1.47-1.84,1.47c0,0,0,.01,0,.02,0,.01.02.03.03.04,0,0,0,0,0,0,.06.09.12.18.19.26l.04.05s0,0,0,0l.04.05c.07.08.14.17.22.24,0,0,0,0,0,0,.01.01.02.03.04.04,0,0,.01,0,.02,0l1.85-1.47h0s.03.06.03.1l-.26,2.37s0,.01,0,.02c.02,0,.03.01.05.02,0,0,0,0,0,0,.25.08.5.13.77.16,0,0,0,0,0,0,.02,0,.03,0,.05,0,0,0,.01,0,.02-.01l.26-2.45c.03-.28-.05-.55-.23-.77l-.58-.73Z"/>
    <path class="uuid-4364229c-308e-46a3-9bbf-3dd61b922a68" d="M16.78,70.4s0-.03,0-.04c0-.04-.02-.08-.03-.12,0-.03-.02-.06-.03-.09,0-.02-.01-.05-.02-.07-.01-.05-.03-.09-.05-.14,0-.02-.01-.03-.02-.05-.02-.06-.05-.12-.07-.18,0,0,0,0,0,0,0-.02-.01-.03-.02-.05,0,0,0,0,0,0,0-.02-.01-.03-.02-.05,0,0-.01-.01-.02,0l-2.25.99c-.25.11-.45.32-.55.57l-.35.87c-.1.26-.1.55.01.81l.97,2.27s.01.01.02,0c.02,0,.03-.01.05-.02,0,0,0,0,0,0,.24-.1.47-.23.69-.37,0,0,0,0,0,0,.01,0,.03-.02.04-.03,0,0,0-.01,0-.02l-.94-2.19s-.01-.07,0-.1h0s2.2.86,2.2.86c0,0,.01,0,.02,0,0-.02.01-.03.02-.05,0,0,0,0,0,0,.02-.05.04-.09.07-.14,0,0,0,0,0-.01.08-.18.16-.38.21-.57,0,0,0,0,0,0,0-.02.01-.03.01-.05,0,0,0-.01,0-.02l-2.19-.86h0s.04-.07.07-.08l2.17-.96s0,0,0-.02c0-.02,0-.03-.01-.05,0,0,0,0,0,0Z"/>
  </g>
  <path class="uuid-59cc422e-19d1-4708-b7a4-a071616f6a5a" d="M114.02,161.32s7.98,1.59,19.99-.33"/>
</svg>