<?xml version="1.0" encoding="UTF-8"?>
<svg id="uuid-77c02ca0-86be-4c42-85a7-f7ad80634580" data-name="Camada 1" xmlns="http://www.w3.org/2000/svg" viewBox="0 0 599.9 153.87">
  <defs>
    <style>
      .uuid-4caeda4a-c954-4613-9ed3-f2d0d161106c {
        fill: #081128;
      }
    </style>
  </defs>
  <path class="uuid-4caeda4a-c954-4613-9ed3-f2d0d161106c" d="M54.71,57.56c3.79,3.78,8.83,5.87,14.19,5.87h17.96c5.35,0,10.39-2.08,14.19-5.86l33.2-33.09c.11-.11.11-.28,0-.39-.22-.23-.46-.45-.69-.68-.02-.05-.05-.1-.09-.14-2.73-2.77-5.66-5.32-8.78-7.66-.1-.08-.21-.15-.31-.23-.77-.57-1.54-1.14-2.33-1.69-.02-.02-.05,0-.08-.02-.28-.19-.55-.4-.84-.59-.11-.07-.26-.06-.35.03l-32.14,32.01c-.47.47-1.1.73-1.77.73h-.18V.75c0-.14-.11-.26-.25-.28-.35-.04-.7-.07-1.05-.1-.03,0-.05-.02-.08-.02-.19-.02-.38-.02-.57-.04-.97-.09-1.94-.16-2.92-.21-.16,0-.33-.01-.49-.02-1.14-.05-2.29-.09-3.45-.09s-2.3.03-3.44.09c-.16,0-.33.01-.49.02-.98.05-1.95.12-2.93.21-.19.02-.37.02-.56.04-.03,0-.05.01-.07.02-.35.03-.7.06-1.05.1-.14.02-.25.13-.25.28v45.1h-.2c-.67,0-1.3-.26-1.77-.73L35.02,13.1c-.09-.09-.24-.11-.35-.03-.29.19-.57.41-.86.61-.03.01-.06,0-.08.02-.78.53-1.53,1.09-2.29,1.65-.12.09-.24.17-.36.26-2.27,1.7-4.44,3.53-6.51,5.46,0,0-.02.01-.02.02-.76.71-1.52,1.43-2.25,2.18-.04.04-.07.09-.09.14-.23.23-.47.45-.69.69-.1.11-.1.28,0,.39l33.18,33.09Z"/>
  <path class="uuid-4caeda4a-c954-4613-9ed3-f2d0d161106c" d="M60.49,77.62c-2.67-4.58-6.95-7.87-12.07-9.26L3.29,56.03c-.15-.04-.3.04-.34.19-.1.33-.18.66-.27.99-.02.03-.04.07-.05.1-.08.3-.15.6-.22.9-.06.21-.11.42-.16.64-.26,1.05-.51,2.1-.73,3.16-.08.4-.16.79-.24,1.19-.16.84-.31,1.68-.45,2.53-.08.5-.16,1-.23,1.51-.07.51-.14,1.02-.2,1.53-.1.83-.18,1.66-.25,2.49-.02.24-.05.49-.07.73,0,.04,0,.07.01.1-.03.34-.06.68-.08,1.02,0,.13.08.25.2.29l43.59,11.91c.64.17,1.18.59,1.51,1.16l.11.18L6.54,109.1c-.12.07-.17.22-.12.35.13.29.28.57.41.86,0,.06.01.12.04.18.86,1.88,1.79,3.71,2.79,5.5l.64,1.1s0,.01,0,.02l.58,1c1.07,1.79,2.21,3.53,3.42,5.22.03.04.07.07.11.1.19.27.37.55.56.81.08.11.24.15.36.08l38.94-22.48h0c.34.59.43,1.27.26,1.91l-11.48,43.9c-.03.13.03.26.14.32.29.14.59.28.88.42.04.04.08.07.13.1,4.45,2.13,9.13,3.85,14,5.12.05.01.1.01.16,0,.32.08.63.17.95.25.15.04.3-.05.33-.2l11.89-45.46c1.35-5.18.61-10.58-2.08-15.2l-8.97-15.38Z"/>
  <path class="uuid-4caeda4a-c954-4613-9ed3-f2d0d161106c" d="M155.7,72c-.02-.26-.06-.51-.08-.77-.07-.75-.14-1.5-.23-2.25-.07-.6-.15-1.2-.23-1.8-.06-.45-.13-.91-.2-1.36-.14-.92-.3-1.82-.48-2.73-.07-.34-.13-.69-.21-1.03-.26-1.22-.54-2.44-.85-3.64-.01-.06-.03-.11-.04-.17-.08-.31-.15-.63-.24-.94-.01-.04-.03-.07-.06-.11-.09-.32-.18-.65-.27-.97-.04-.14-.19-.23-.34-.19l-45.16,12.32c-5.11,1.4-9.4,4.68-12.07,9.26l-8.97,15.38c-2.68,4.6-3.43,10.07-2.08,15.22l11.91,45.45c.04.15.19.24.33.2.32-.08.63-.16.95-.25.05,0,.1,0,.16,0,4.87-1.26,9.55-2.99,14-5.12.05-.02.09-.06.13-.1.29-.14.59-.28.88-.42.12-.06.18-.19.14-.32l-11.5-43.9c-.17-.65-.08-1.32.26-1.9v-.02s38.96,22.49,38.96,22.49c.12.07.28.04.36-.08.19-.26.37-.54.56-.8.04-.03.08-.06.11-.11.56-.79,1.1-1.6,1.64-2.41.05-.08.1-.15.15-.22,2.12-3.25,4.02-6.65,5.65-10.21.03-.06.04-.12.04-.18.13-.29.28-.57.41-.86.06-.13,0-.28-.12-.35l-38.89-22.45.1-.17c.33-.57.87-.98,1.51-1.16l43.62-11.9c.13-.03.21-.15.2-.29-.02-.34-.05-.68-.08-1.02,0-.04.01-.07.01-.11Z"/>
  <path class="uuid-4caeda4a-c954-4613-9ed3-f2d0d161106c" d="M479.24,112.31c-14.37,0-21.63-8.89-21.63-26.66s7.26-26.07,21.63-26.07c12.57,0,17.77,5.62,19.2,14.59h14.26c-1.19-15.08-11.85-27.32-33.45-27.32s-35.86,14.22-35.86,38.81,13.63,39.25,35.86,39.25,33.34-11.7,33.93-29.18h-14.08c-.44,10.07-6.67,16.59-19.86,16.59Z"/>
  <path class="uuid-4caeda4a-c954-4613-9ed3-f2d0d161106c" d="M223.17,46.85c-22.37,0-36,14.22-36,38.81s13.63,39.25,36,39.25,32.74-10.96,33.93-27.4h-14.08c-1.04,9.04-7.11,14.81-19.86,14.81s-20.89-7.57-21.48-22.54h55.41c.45-4.15.3-7.24.15-10.94-1.04-18.37-12.45-31.99-34.08-31.99ZM201.98,78.06c1.93-11.55,9.19-18.63,21.04-18.63s19.11,7.08,20,18.63h-41.04Z"/>
  <path class="uuid-4caeda4a-c954-4613-9ed3-f2d0d161106c" d="M401.36,46.84c-22.37,0-36.01,14.22-36.01,38.81s13.63,39.25,36.01,39.25,32.74-10.96,33.93-27.4h-14.08c-1.04,9.04-7.11,14.81-19.85,14.81s-20.89-7.7-21.48-22.66h55.41c.45-4.15.3-7.11.15-10.81-1.04-18.37-12.45-31.99-34.08-31.99ZM380.17,78.06c1.93-11.55,9.19-18.63,21.04-18.63s19.11,7.08,20,18.63h-41.04Z"/>
  <path class="uuid-4caeda4a-c954-4613-9ed3-f2d0d161106c" d="M323.04,42.94v11.7h-31.18v-13.73c0-2.16,1.75-3.9,3.9-3.9h19.54v-13.59h-18.89c-10.78,0-19.51,8.74-19.51,19.51v11.7h-15.61v11.71h15.63v58.54h14.97v-58.54h31.17v58.54h14.97v-58.54h23.42v-11.71h-23.42l-.03-13.73c0-2.16,1.75-3.9,3.9-3.9h19.54v-13.59h-18.89c-10.78,0-19.51,8.74-19.51,19.51Z"/>
  <rect class="uuid-4caeda4a-c954-4613-9ed3-f2d0d161106c" x="585.45" y="23.43" width="14.44" height="13.63"/>
  <rect class="uuid-4caeda4a-c954-4613-9ed3-f2d0d161106c" x="585.45" y="46.85" width="14.44" height="78.06"/>
  <path class="uuid-4caeda4a-c954-4613-9ed3-f2d0d161106c" d="M547.67,23.43h-14.97v23.42h-15.62v11.7h15.62v51.13c-.01,8.41,6.8,15.23,15.21,15.23h25.83v-12.91h-22.17c-2.16,0-3.9-1.75-3.9-3.9v-49.54s26.08,0,26.08,0v-11.7h-26.08v-23.42Z"/>
</svg>